<svg width="46" height="46" viewBox="0 0 46 46" fill="none" xmlns="http://www.w3.org/2000/svg">
<path d="M15.1992 0.0919189C14.5424 0.217842 13.5619 0.739529 12.9412 1.29719C12.1495 2.00776 11.5738 2.25961 10.7551 2.25961C9.93651 2.25961 8.89298 1.93581 8.04736 1.42312C7.01282 0.80249 6.47306 0.58662 5.91531 0.577625C5.25861 0.577625 4.77283 0.883442 4.47596 1.49507C3.83725 2.79029 4.6109 5.31777 6.74294 8.85264C7.12977 9.49125 7.66953 10.3457 7.93941 10.7415L8.43418 11.4611L7.86744 11.524C6.34712 11.6769 5.29459 12.8912 5.40254 14.3753C5.45652 15.1039 5.7174 15.6435 6.25716 16.1562L6.66198 16.534L5.82535 17.4874C4.56592 18.9176 4.03516 19.6551 4.03516 19.9699C4.03516 20.5456 4.8358 20.9054 5.2676 20.5186C5.36656 20.4377 5.79837 19.934 6.23017 19.4033C6.65298 18.8726 7.33668 18.0991 7.7325 17.6763L8.46117 16.9118L16.6115 16.8848L24.7709 16.8578L25.2207 16.6509C26.588 16.0213 27.2088 14.4383 26.597 13.1161C26.1562 12.1626 25.3736 11.614 24.3211 11.524L23.7633 11.4881L24.3211 10.6605C24.6269 10.2108 25.1847 9.33835 25.5535 8.71772C28.2433 4.24741 28.6931 1.36915 26.8309 0.658577C26.3002 0.460697 25.8144 0.541647 24.9868 0.982382C23.0616 2.01676 22.333 2.2776 21.3974 2.26861C20.6417 2.25961 20.012 1.97179 19.2383 1.29719C17.9969 0.190859 16.6745 -0.195908 15.1992 0.0919189ZM17.2682 1.7739C17.4931 1.87284 17.9609 2.20564 18.3028 2.51146C20.048 4.06752 22.135 4.22943 24.456 2.98817C26.3002 1.99877 26.3362 1.98977 26.4711 2.34956C26.597 2.70035 26.2822 3.86964 25.7424 5.08391C25.1397 6.4331 24.2941 7.89921 22.9897 9.86003L21.9011 11.506H20.9296H19.958V9.51824C19.958 7.51245 19.922 7.27859 19.6072 7.03573C19.3643 6.84685 18.8965 6.90082 18.6536 7.14367L18.4287 7.35954V9.43729V11.506H16.1437H13.8498L13.8228 9.42829L13.7958 7.35054L13.5439 7.13467C13.238 6.87383 12.8602 6.85584 12.5453 7.10769L12.3114 7.28758V9.40131V11.506H11.3219H10.3413L9.70261 10.5796C8.09234 8.26799 6.47306 5.37174 6.02326 3.99557C5.78937 3.276 5.69941 2.62839 5.78037 2.30458C5.82535 2.09771 5.86134 2.07972 6.11322 2.15168C6.25716 2.19665 6.57202 2.34056 6.80591 2.47548C7.03981 2.6104 7.43563 2.83527 7.67852 2.97018C8.25426 3.30298 9.36976 3.66277 10.1704 3.7707C11.4388 3.95059 12.7612 3.51885 13.8228 2.57442C14.7224 1.76491 15.3521 1.50407 16.2697 1.55803C16.5935 1.58502 17.0433 1.67496 17.2682 1.7739ZM24.8608 13.305C24.9958 13.4309 25.1667 13.6647 25.2386 13.8266C25.4905 14.4293 25.0227 15.2028 24.3391 15.3287C24.1771 15.3557 20.3718 15.3737 15.8649 15.3557C7.99338 15.3287 7.66953 15.3197 7.42664 15.1578C6.72495 14.6811 6.76093 13.6557 7.48061 13.215C7.75949 13.0351 7.9574 13.0351 16.1977 13.0531L24.6179 13.0801L24.8608 13.305Z" fill="#2591B2"/>
<path d="M26.2344 19.2771C25.4788 19.484 24.858 20.1136 24.6331 20.9051C24.5612 21.166 24.5432 24.449 24.5612 32.8229L24.5882 44.381L24.7861 44.7408C25.011 45.1635 25.4518 45.5952 25.8926 45.8291C26.1894 45.991 26.6033 46 35.2934 46C43.9835 46 44.3973 45.991 44.6941 45.8291C45.1349 45.5952 45.5758 45.1635 45.8006 44.7408L45.9986 44.381V32.5981V20.8152L45.8006 20.4464C45.5758 20.0147 45.072 19.5469 44.6132 19.3401C44.3253 19.2141 43.3987 19.1962 35.4733 19.1782C28.5734 19.1692 26.5673 19.1872 26.2344 19.2771ZM44.2983 20.9771L44.5142 21.2289V32.6071V43.9942L44.2533 44.2551L43.9925 44.5159H35.2934H26.5943L26.3334 44.2551L26.0725 43.9942V32.697C26.0725 25.4474 26.1085 21.3279 26.1625 21.175C26.3514 20.6713 26.0815 20.6803 35.4553 20.7072L44.0824 20.7252L44.2983 20.9771Z" fill="#2591B2"/>
<path d="M29.2209 23.2167C28.96 23.3516 28.7441 23.5495 28.6092 23.7834C28.4113 24.1341 28.4113 24.2061 28.4292 26.1759L28.4562 28.2087L28.6991 28.5235C29.1939 29.1711 28.897 29.1441 35.4191 29.1171C41.1585 29.0902 41.2665 29.0902 41.5094 28.9013C41.6443 28.8023 41.8422 28.6044 41.9412 28.4695C42.1211 28.2357 42.1301 28.1007 42.1301 26.095C42.1301 23.9902 42.1301 23.9632 41.9142 23.6574C41.7972 23.4955 41.5364 23.2797 41.3295 23.1897C40.9786 23.0368 40.6278 23.0188 35.2932 23.0188H29.6167L29.2209 23.2167ZM40.6458 26.077V27.606H35.2932H29.9406V26.077V24.5479H35.2932H40.6458V26.077Z" fill="#2591B2"/>
<path d="M28.6373 31.6986C28.2145 32.1123 28.4124 32.8139 28.9791 32.9668C29.105 32.9938 29.7976 33.0028 30.5261 32.9848C31.7854 32.9578 31.8573 32.9488 32.0192 32.7419C32.2621 32.4451 32.2441 31.9684 31.9653 31.6986C31.7494 31.4827 31.7224 31.4737 30.3013 31.4737C28.8801 31.4737 28.8531 31.4827 28.6373 31.6986Z" fill="#2591B2"/>
<path d="M34.046 31.6717C33.7042 31.9865 33.6953 32.4453 34.037 32.7781C34.2439 32.9939 34.2889 33.0029 35.6111 33.0029C36.9783 33.0029 37.2391 32.949 37.473 32.6521C37.6619 32.4093 37.6079 31.9416 37.365 31.6987C37.1492 31.4828 37.1132 31.4739 35.71 31.4739C34.3429 31.4739 34.2619 31.4828 34.046 31.6717Z" fill="#2591B2"/>
<path d="M39.378 31.7347C39.2251 31.8966 39.1172 32.0945 39.1172 32.2384C39.1172 32.3823 39.2251 32.5802 39.378 32.7421L39.6389 33.0029H41.051H42.4632L42.724 32.7421C42.8769 32.5802 42.9849 32.3823 42.9849 32.2384C42.9849 32.0945 42.8769 31.8966 42.724 31.7347L42.4632 31.4739H41.051H39.6389L39.378 31.7347Z" fill="#2591B2"/>
<path d="M28.6389 34.7568C28.486 34.9007 28.4141 35.0716 28.4141 35.2965C28.4141 35.5214 28.486 35.6923 28.6389 35.8362C28.8548 36.052 28.8818 36.061 30.3029 36.061C31.7241 36.061 31.7511 36.052 31.9669 35.8362C32.1198 35.6923 32.1918 35.5214 32.1918 35.2965C32.1918 35.0716 32.1198 34.9007 31.9669 34.7568C31.7511 34.541 31.7241 34.532 30.3029 34.532C28.8818 34.532 28.8548 34.541 28.6389 34.7568Z" fill="#2591B2"/>
<path d="M34.037 34.7568C33.6953 35.0896 33.7042 35.5483 34.046 35.8542C34.2619 36.052 34.3429 36.061 35.6921 36.061C37.1132 36.061 37.1132 36.061 37.356 35.8272C37.6079 35.5663 37.6709 35.1346 37.473 34.8827C37.2391 34.5859 36.9783 34.532 35.6111 34.532C34.2889 34.532 34.2439 34.541 34.037 34.7568Z" fill="#2591B2"/>
<path d="M39.378 34.7928C39.2251 34.9547 39.1172 35.1526 39.1172 35.2965C39.1172 35.4404 39.2251 35.6383 39.378 35.8002L39.6389 36.061H41.051H42.4632L42.724 35.8002C42.8769 35.6383 42.9849 35.4404 42.9849 35.2965C42.9849 35.1526 42.8769 34.9547 42.724 34.7928L42.4632 34.532H41.051H39.6389L39.378 34.7928Z" fill="#2591B2"/>
<path d="M28.8186 37.698C28.3599 37.9588 28.2699 38.5345 28.6387 38.8943C28.8546 39.1101 28.8816 39.1191 30.3027 39.1191C31.7239 39.1191 31.7508 39.1101 31.9667 38.8943C32.3355 38.5345 32.2635 37.9498 31.8228 37.725C31.508 37.5541 29.0974 37.5361 28.8186 37.698Z" fill="#2591B2"/>
<path d="M34.1881 37.68C33.9452 37.7789 33.7293 38.2377 33.7923 38.5435C33.8103 38.6604 33.9362 38.8403 34.0621 38.9392C34.26 39.1012 34.4219 39.1191 35.7171 39.1191C37.1113 39.1191 37.1473 39.1101 37.3632 38.8943C37.678 38.5885 37.66 38.1927 37.3272 37.8509L37.0663 37.5901L35.7261 37.5991C34.9976 37.5991 34.305 37.635 34.1881 37.68Z" fill="#2591B2"/>
<path d="M39.4431 37.7879C39.0833 38.1028 39.0563 38.4895 39.3441 38.8313L39.587 39.1191H41.0351C42.5552 39.1101 42.6721 39.0832 42.879 38.6964C43.0499 38.3816 43.0049 38.1297 42.7261 37.8509L42.4652 37.5901H41.0621C39.7489 37.5901 39.6589 37.5991 39.4431 37.7879Z" fill="#2591B2"/>
<path d="M28.6899 40.882C28.3301 41.1788 28.3032 41.6286 28.636 41.9524C28.8518 42.1683 28.8878 42.1772 30.282 42.1772C31.5952 42.1772 31.7391 42.1593 31.955 41.9884C32.1259 41.8534 32.1888 41.7185 32.1888 41.5027C32.1888 40.7561 31.955 40.6482 30.264 40.6482C28.9957 40.6482 28.9598 40.6572 28.6899 40.882Z" fill="#2591B2"/>
<path d="M34.1525 40.7831C33.7388 41.0169 33.6758 41.6016 34.0176 41.9704C34.1975 42.1683 34.2604 42.1772 35.6726 42.1772C37.1207 42.1772 37.1477 42.1772 37.3636 41.9524C37.6514 41.6735 37.6514 41.2778 37.3726 40.945L37.1567 40.6931L35.7715 40.6752C34.6742 40.6572 34.3414 40.6752 34.1525 40.7831Z" fill="#2591B2"/>
<path d="M39.5668 40.7651C39.0901 41.008 39.0091 41.6286 39.4049 41.9974C39.5848 42.1593 39.7197 42.1772 41.0689 42.1772C42.4091 42.1772 42.553 42.1593 42.7149 41.9974C43.1017 41.6106 43.0207 41.008 42.535 40.7651C42.2292 40.6122 39.8726 40.6122 39.5668 40.7651Z" fill="#2591B2"/>
<path d="M15.6283 20.1315C15.4483 20.2754 15.4034 20.4104 15.3674 20.9231C15.3224 21.5257 15.3224 21.5347 15.0525 21.5617C14.027 21.6696 12.5876 22.2902 11.715 23.0098C11.0943 23.5135 10.4286 24.4489 10.1947 25.1325C9.2861 27.8399 11.3192 30.6372 14.6927 31.3208L15.3224 31.4467L15.3494 34.8736C15.3674 37.644 15.3494 38.3096 15.2504 38.3096C14.9626 38.3096 14.063 38.0217 13.5502 37.7609C12.8305 37.4011 12.0209 36.6186 11.778 36.0699C11.679 35.8361 11.5531 35.3863 11.5081 35.0625C11.4002 34.3969 11.2022 34.1721 10.7165 34.1721C10.0328 34.1721 9.80786 34.7927 10.1047 35.908C10.3206 36.7445 10.6715 37.3202 11.4002 38.0487C11.9579 38.6064 12.2458 38.8133 12.9385 39.1461C13.7481 39.5328 14.7377 39.8387 15.1695 39.8387C15.3494 39.8387 15.3674 39.8836 15.3674 40.4053C15.3674 40.855 15.4034 41.0169 15.5473 41.1698C15.7902 41.4307 16.114 41.5026 16.4109 41.3497C16.7438 41.1968 16.8967 40.882 16.8967 40.3334V39.8836L17.5984 39.7307C19.6045 39.317 21.3137 38.0217 21.9434 36.4477C22.1233 36.007 22.1593 35.7641 22.1593 34.8826V33.8393L21.7815 33.0747C21.1698 31.8425 20.0003 30.8621 18.5339 30.3494C18.1741 30.2234 17.6703 30.0885 17.4095 30.0526L16.9417 29.9896L16.9147 26.5447C16.8877 22.5691 16.7707 22.9378 17.9492 23.3336C19.5415 23.8733 20.4951 24.8807 20.684 26.2478C20.7829 26.9944 21.0618 27.2912 21.5656 27.2103C22.0964 27.1293 22.2313 26.8775 22.1863 26.059C22.0874 24.395 20.711 22.7669 18.7409 21.9844C18.399 21.8495 17.8413 21.6876 17.5174 21.6336L16.9147 21.5437L16.8787 20.968C16.8427 20.4733 16.8067 20.3564 16.5908 20.1765C16.294 19.9157 15.9161 19.8977 15.6283 20.1315ZM15.3674 26.4817C15.3674 30.3764 15.4933 30.0076 14.3148 29.6298C13.4962 29.378 12.6056 28.7933 12.1648 28.2356C10.7524 26.4457 11.724 24.1881 14.2879 23.3156C14.6117 23.2077 14.9805 23.1087 15.1245 23.1087H15.3674V26.4817ZM17.9132 31.7525C19.1007 32.1483 20.0453 32.9218 20.4501 33.8303C20.666 34.316 20.693 34.4599 20.657 35.0625C20.63 35.4673 20.549 35.872 20.4501 36.0609C19.8923 37.1493 18.6869 37.9678 17.1936 38.2646L16.8967 38.3276V34.9456V31.5636H17.1216C17.2475 31.5636 17.6074 31.6446 17.9132 31.7525Z" fill="#2591B2"/>
<path d="M1.92877 23.3067C1.62291 23.5855 0.939213 25.3754 0.561383 26.8415C0.120581 28.5955 -0.0503427 30.2685 0.012629 32.1933C0.192548 37.4372 1.93777 41.1069 5.34724 43.3736C6.93053 44.4259 8.67574 45.1185 10.8168 45.5503C12.661 45.919 13.6505 46 16.2234 46C18.8232 45.991 19.9027 45.8921 21.7469 45.4693C22.5115 45.2984 22.7274 45.2085 22.8984 45.0196C23.1862 44.6868 23.1592 44.381 22.8354 44.0482C22.5205 43.7424 22.6375 43.7334 20.7663 44.0931C17.5278 44.7048 13.3087 44.6238 10.34 43.8773C6.84956 43.0048 4.3217 41.1159 2.91833 38.3276C1.39801 35.2965 1.09214 30.4484 2.18965 26.6707C2.3156 26.2299 2.60347 25.4204 2.82837 24.8807C3.08925 24.2331 3.2062 23.8284 3.17021 23.7024C3.07126 23.3606 2.76539 23.1088 2.45054 23.1088C2.27062 23.1088 2.06371 23.1897 1.92877 23.3067Z" fill="#2591B2"/>
</svg>
