<svg width="70" height="64" viewBox="0 0 70 64" fill="none" xmlns="http://www.w3.org/2000/svg">
<path d="M4.43806 0.452C3.33033 0.799 2.27599 1.58642 1.66207 2.57403C0.781224 3.94868 0.834608 2.32046 0.834608 27.3044C0.834608 49.5924 0.834608 49.9661 1.10153 50.7935C1.58199 52.315 2.59629 53.3827 4.15779 54.0099L4.90517 54.3169L16.0091 54.3569C22.1217 54.3836 27.1264 54.437 27.1264 54.4904C27.1264 54.8641 25.8452 58.9613 25.5916 59.4018C25.1646 60.1358 24.3104 60.8832 23.4029 61.3103L22.6555 61.6573L18.2513 61.6973C13.3266 61.7507 13.38 61.7373 13.38 62.6582C13.38 62.9919 13.4734 63.2321 13.6602 63.4056C13.9405 63.6592 14.4743 63.6592 35.0006 63.6592C55.527 63.6592 56.0608 63.6592 56.3411 63.4056C56.5279 63.2321 56.6214 62.9919 56.6214 62.6582C56.6214 61.7373 56.6747 61.7507 51.75 61.6973L47.3458 61.6573L46.5984 61.3103C45.6909 60.8832 44.8367 60.1358 44.4097 59.4018C44.1561 58.9613 42.8749 54.8641 42.8749 54.4904C42.8749 54.437 47.8796 54.3836 53.9922 54.3569L65.0961 54.3169L65.8435 54.0099C67.405 53.3827 68.4193 52.315 68.8998 50.7935C69.1667 49.9661 69.1667 49.5924 69.1667 27.291C69.1667 4.98968 69.1667 4.61599 68.8998 3.78853C68.4193 2.26707 67.365 1.15934 65.8836 0.598808C65.1629 0.331886 65.0027 0.331886 34.9606 0.34523C18.358 0.34523 4.6249 0.398617 4.43806 0.452ZM65.8435 2.80091C66.2039 3.05449 66.5642 3.46822 66.7911 3.92199L67.1648 4.62933V22.4998V40.3702H35.0006H2.83652V22.5532C2.83652 6.84479 2.86322 4.66937 3.03672 4.24229C3.35702 3.46822 3.83748 2.92103 4.46475 2.61407L5.03863 2.3338L35.1608 2.36049L65.2696 2.40053L65.8435 2.80091ZM67.1648 46.1624V49.9527L66.7911 50.6601C66.3106 51.5809 65.6166 52.0748 64.5623 52.2483C63.4679 52.4218 6.5334 52.4218 5.43902 52.2483C4.38467 52.0748 3.69068 51.5809 3.21022 50.6601L2.83652 49.9527V46.1624V42.3721H35.0006H67.1648V46.1624ZM40.9931 55.2778C41.1399 55.785 41.4602 56.906 41.7137 57.7869C42.2876 59.7888 42.4478 60.1625 43.0617 60.9633C43.3286 61.3103 43.5422 61.6172 43.5422 61.6573C43.5422 61.6973 39.6985 61.724 35.0006 61.724C30.3028 61.724 26.4591 61.6973 26.4591 61.6573C26.4591 61.6172 26.6727 61.3103 26.9396 60.9633C27.5535 60.1625 27.7137 59.7888 28.2876 57.7869C28.5411 56.906 28.8614 55.785 29.0082 55.2778L29.2752 54.3836H35.0006H40.7261L40.9931 55.2778Z" fill="#1F3F98"/>
<path d="M5.10481 4.62936C4.83789 4.90963 4.83789 5.05644 4.83789 12.2767C4.83789 19.4969 4.83789 19.6437 5.10481 19.924C5.29166 20.1108 5.54523 20.2176 5.83885 20.2176C6.13246 20.2176 6.38604 20.1108 6.57288 19.924C6.83981 19.6437 6.83981 19.4969 6.83981 12.984V6.33767H35.0001H63.1604V21.352V36.3664H35.0001H6.83981V29.6533C6.83981 23.0737 6.83981 22.9269 6.57288 22.6466C6.38604 22.4598 6.13246 22.353 5.83885 22.353C5.54523 22.353 5.29166 22.4598 5.10481 22.6466C4.83789 22.9269 4.83789 23.0737 4.83789 30.2806C4.85124 38.2082 4.82454 37.9546 5.55858 38.2349C6.06573 38.4217 63.9345 38.4217 64.4416 38.2349C65.189 37.9413 65.149 38.9422 65.1623 21.272C65.1623 5.00305 65.1623 4.92298 64.8954 4.62936L64.6151 4.33575H35.0001H5.38508L5.10481 4.62936Z" fill="#1F3F98"/>
<path d="M33.7327 44.6012C32.6383 45.1751 32.0645 46.1093 32.0645 47.3104C32.0645 49.0454 33.2656 50.2466 35.0006 50.2466C36.7356 50.2466 37.9367 49.0454 37.9367 47.3104C37.9367 46.1093 37.3762 45.1751 36.3085 44.6279C35.6812 44.3076 34.3066 44.2942 33.7327 44.6012ZM35.6946 46.6031C36.0016 46.87 36.0149 47.6708 35.7079 48.0044C35.441 48.3114 34.6403 48.3247 34.3066 48.0178C33.9996 47.7509 33.9863 46.9501 34.2933 46.6164C34.5602 46.3095 35.3609 46.2961 35.6946 46.6031Z" fill="#1F3F98"/>
</svg>
