<svg width="70" height="56" viewBox="0 0 70 56" fill="none" xmlns="http://www.w3.org/2000/svg">
<path d="M12.4715 1.09478C11.3371 1.50851 10.5764 2.61624 10.5764 3.83073V4.52473H6.03869H1.48766L1.16736 4.85838C0.766972 5.25877 0.74028 5.71254 1.11397 6.17965L1.38089 6.52665H5.9853H10.5764L10.5497 10.4904L10.5096 14.4676L9.37521 14.5343C8.22745 14.601 7.64022 14.8012 7.22649 15.2817C6.79941 15.7755 6.57253 16.4028 6.57253 17.1101C6.57253 17.7374 6.66595 17.9776 7.27987 19.0053C8.14737 20.4867 9.01487 21.4476 9.90906 21.9281C11.1502 22.5954 11.6707 22.6754 15.4877 22.6754H18.9844V24.1435V25.6116L17.8366 26.706C15.7013 28.7479 13.9529 31.2036 12.5649 34.073C11.604 36.0749 11.4706 36.6889 11.911 37.156C12.258 37.5163 12.7918 37.5964 13.1522 37.3161C13.2723 37.236 13.646 36.5287 13.993 35.7546C15.1274 33.1788 16.6222 30.8966 18.5573 28.8146L19.4782 27.8137L19.6918 28.2274C19.8119 28.4676 20.0654 28.8413 20.2656 29.0682L20.6126 29.482L19.8519 30.3094C17.2494 33.1121 15.4477 36.5554 14.4601 40.626C14.1264 41.9606 13.9529 43.2818 13.8328 45.1636C13.7794 46.0178 13.6727 46.7518 13.5659 46.9253C13.3257 47.3124 12.9119 47.4191 12.4448 47.2323C11.8042 46.9654 11.7241 46.5516 11.911 44.3362C12.0044 43.2418 12.0845 42.2141 12.0845 42.0406C12.0578 41.2933 10.9767 40.8929 10.4429 41.4401C10.1093 41.7737 9.88237 43.3085 9.85567 45.4973C9.84233 46.9787 9.86902 47.2323 10.1359 47.6994C10.8032 48.9673 12.0711 49.5278 13.5125 49.2209C14.0597 49.1007 14.3533 48.9406 14.8471 48.4468C15.5545 47.7661 15.7813 47.1922 15.7813 46.0311C15.7947 42.094 17.2094 37.4896 19.4382 34.1664C20.5726 32.4848 22.2942 30.5096 22.5478 30.603C22.6546 30.6564 22.9882 30.7231 23.2819 30.7632C23.7356 30.8433 23.8424 30.9233 24.0159 31.3371C26.7518 37.9701 27.0321 38.4372 28.7004 39.2513L29.5946 39.6917L34.6261 39.7318C40.3115 39.7718 40.792 39.7184 42.0331 38.8776C43.0341 38.197 43.5012 37.3962 44.9426 33.9396L46.2238 30.8699L46.9178 30.7098L47.6118 30.563L48.5861 31.5906C51.936 35.1407 53.8711 39.8786 54.1648 45.2571C54.2715 47.1522 54.3916 47.646 54.9121 48.2466C55.5394 48.9539 56.2734 49.2876 57.2344 49.3009C58.2887 49.3009 59.1696 48.7938 59.7568 47.8329C60.1572 47.1922 60.1572 47.1655 60.1305 45.4572C60.037 38.4105 57.0609 31.4038 52.1628 26.706L51.0151 25.6116V24.1435V22.6754H54.6052C57.7015 22.6754 58.3021 22.6487 58.9827 22.4352C60.5575 21.9414 61.5585 21.0472 62.7063 19.1254C63.5204 17.7641 63.6538 17.2569 63.4403 16.4295C63.2802 15.8422 62.6662 15.0415 62.1724 14.7612C62.0256 14.6811 61.3583 14.5744 60.691 14.5343L59.4899 14.4676L59.4498 10.4904L59.4231 6.52665H64.0142H68.6186L68.8855 6.17965C69.2592 5.71254 69.2325 5.25877 68.8321 4.85838L68.5118 4.52473H63.9875H59.4498L59.3964 3.65723C59.3297 2.52282 58.8492 1.80212 57.8349 1.28163C55.7663 0.240631 53.4174 1.69535 53.4174 4.00423V4.52473H48.8797C44.5155 4.52473 44.3287 4.53808 44.0751 4.79165C43.6614 5.20538 43.6747 5.92607 44.1018 6.28642C44.342 6.49995 44.7824 6.52665 48.893 6.52665H53.4174V10.5305V14.5343H52.0427H50.6814L50.3611 13.9337C49.934 13.133 48.9064 12.1987 47.9722 11.7583C47.2782 11.4247 47.0513 11.398 45.2095 11.3579C43.3277 11.3179 43.1943 11.3312 42.914 11.5982C42.4736 11.9986 42.5003 12.6926 42.954 13.0529C43.2743 13.3065 43.4879 13.3332 44.8492 13.3332C46.6242 13.3332 47.2248 13.48 47.9321 14.0805C48.7062 14.7612 48.8797 15.2283 48.8797 16.7765C48.8797 17.9109 48.9197 18.1511 49.16 18.4581C49.4803 18.8585 50.1209 18.9252 50.588 18.5915C50.8416 18.418 50.8816 18.2712 50.8816 17.4571V16.5362H56.0733C61.6252 16.5362 61.7053 16.5496 61.4918 17.1902C61.3316 17.684 60.1438 19.4056 59.6767 19.7927C58.7291 20.5934 58.6757 20.6068 53.9112 20.6735L49.5203 20.7403L49.2667 21.0606C49.0399 21.3408 49.0132 21.6077 49.0132 23.8099C49.0132 27.0129 48.813 27.5601 47.3983 28.3475L46.6776 28.7479L43.995 28.788L41.2991 28.828L41.219 28.2408C41.0856 27.3866 40.3382 25.9185 39.6308 25.1311C38.5632 23.9433 36.7881 23.2093 34.9997 23.2093C31.9568 23.2093 29.4344 25.2112 28.8205 28.094L28.6737 28.8146H26.2313C23.4153 28.8146 22.7347 28.6545 21.8805 27.7737C21.1198 26.9996 20.9863 26.3723 20.9863 23.5963V21.2207L20.6393 20.9538C20.2923 20.6869 20.1322 20.6735 16.2618 20.6735C14.0464 20.6735 12.0311 20.6068 11.7775 20.5401C10.8032 20.2731 10.0692 19.6592 9.29514 18.4714C8.76129 17.6573 8.57445 17.2302 8.60114 16.9633L8.64118 16.603L13.8862 16.5629L19.1179 16.5362V17.377C19.1179 18.3913 19.3981 18.8051 20.0921 18.8051C20.9463 18.8051 21.0397 18.6049 21.1198 16.8298C21.1865 15.3084 21.2132 15.1883 21.5869 14.6544C21.8405 14.2941 22.2542 13.9337 22.708 13.7069L23.4153 13.3332H30.3286C37.1084 13.3332 37.2419 13.3332 37.5889 13.0529C38.0427 12.6926 38.0694 11.9986 37.6423 11.5982C37.362 11.3312 37.2152 11.3312 30.3953 11.3312C24.4296 11.3312 23.3352 11.3579 22.708 11.5448C21.3734 11.9318 20.2389 12.8394 19.6517 14.0005L19.3848 14.5343H17.9835H16.5821V10.5305V6.52665H21.1064C25.217 6.52665 25.6575 6.49995 25.8977 6.28642C26.3248 5.92607 26.3381 5.20538 25.9244 4.79165C25.6708 4.53808 25.484 4.52473 21.1198 4.52473H16.5821V4.00423C16.5821 1.8822 14.4601 0.387436 12.4715 1.09478ZM14.2465 3.25685C14.4734 3.47039 14.5802 3.72396 14.5802 4.05762V4.52473H13.5792H12.5783V3.99089C12.5783 2.98993 13.5525 2.56285 14.2465 3.25685ZM57.1543 3.19012C57.3278 3.36362 57.4212 3.63054 57.4212 3.99089V4.52473H56.4203H55.4193V4.05762C55.4193 3.11004 56.527 2.56285 57.1543 3.19012ZM14.5802 10.5305V14.5343H13.5792H12.5783V10.5305V6.52665H13.5792H14.5802V10.5305ZM57.4212 10.5305V14.5343H56.4203H55.4193V10.5305V6.52665H56.4203H57.4212V10.5305ZM36.8682 25.5715C37.6957 25.9853 38.5365 26.8394 38.9635 27.7336C39.2705 28.3475 39.3372 28.6545 39.3372 29.482C39.3372 30.3495 39.2705 30.6164 38.8968 31.3771C38.1227 32.9653 36.7481 33.8194 34.9997 33.8061C33.7719 33.7927 32.9978 33.4858 32.0636 32.6049C30.3686 31.0168 30.1685 28.481 31.6098 26.7727C32.0769 26.2122 32.851 25.6516 33.4916 25.4114C34.2791 25.1178 36.1075 25.1979 36.8682 25.5715ZM51.9226 29.3618C55.5528 33.4457 57.6214 38.5039 58.1019 44.4163C58.2754 46.5383 58.1953 46.9654 57.568 47.2323C57.1409 47.4058 56.5671 47.2323 56.3802 46.8719C56.3135 46.7385 56.2201 45.9644 56.1667 45.1636C55.793 39.1712 53.8044 34.2465 50.1476 30.3094L49.3735 29.4686L49.7739 29.0415C50.0008 28.8013 50.2543 28.481 50.3344 28.3075C50.4278 28.134 50.5747 28.0272 50.6547 28.0539C50.7482 28.0806 51.322 28.6678 51.9226 29.3618ZM29.0474 31.6841C29.9683 34.2198 32.2504 35.7947 34.9997 35.7947C37.749 35.7947 40.0312 34.2198 40.9521 31.6841L41.2457 30.8833L42.6604 30.8433L44.0751 30.8032L43.955 31.1102C43.608 32.0044 41.9397 35.9014 41.7529 36.2484C41.4726 36.8223 40.6985 37.4496 40.1113 37.6097C39.3906 37.8099 30.5155 37.8099 29.9149 37.6097C29.2342 37.3695 28.6203 36.8624 28.3133 36.2618C27.9663 35.5811 26.0579 31.0568 26.0579 30.91C26.0579 30.8566 26.6718 30.8299 27.4058 30.8433L28.7538 30.8833L29.0474 31.6841Z" fill="#1F3F98"/>
<path d="M32.237 28.7608C31.9433 29.0544 31.9033 29.1745 31.9834 29.695C32.1302 30.8561 32.7308 31.6569 33.7984 32.1373C35.0129 32.6845 35.9338 32.3776 35.9338 31.4166C35.9338 30.8561 35.5067 30.4157 34.9729 30.4157C34.4658 30.4157 33.9319 29.8818 33.9319 29.3747C33.9319 28.8942 33.4381 28.4138 32.9443 28.4138C32.7308 28.4138 32.4371 28.5606 32.237 28.7608Z" fill="#1F3F98"/>
<path d="M30.0752 46.9118C29.915 47.112 29.7949 47.419 29.7949 47.6058C29.7949 48.4199 32.2773 49.928 34.039 50.1683C36.0943 50.4485 38.1896 49.8213 39.6844 48.4733C40.0981 48.0996 40.2049 47.8994 40.2049 47.5524C40.2049 46.5248 39.2306 46.2579 38.2964 47.0186C37.509 47.6459 36.7883 47.9929 35.8274 48.1664C34.426 48.4199 33.1048 48.0596 31.8636 47.0987C31.0228 46.4447 30.4889 46.3913 30.0752 46.9118Z" fill="#1F3F98"/>
<path d="M27.019 50.2481C26.2983 50.7553 26.4184 51.476 27.3793 52.2767C28.9808 53.6247 30.7692 54.4922 32.8646 54.9193C34.2125 55.1862 36.5881 55.1195 37.9361 54.7725C40.3651 54.1452 43.5414 52.0232 43.5414 51.0489C43.5414 50.6485 42.9275 50.0346 42.5405 50.0346C42.3803 50.0346 41.8465 50.3549 41.3527 50.7553C39.4842 52.3034 37.7759 52.9707 35.4671 53.0642C34.2659 53.1175 33.7854 53.0775 32.8112 52.8506C31.3565 52.5036 29.8216 51.7162 28.7139 50.7553C27.8331 49.9945 27.5128 49.9011 27.019 50.2481Z" fill="#1F3F98"/>
</svg>
