<svg width="12" height="22" viewBox="0 0 12 22" fill="none" xmlns="http://www.w3.org/2000/svg">
<path d="M10.8572 21.8332C11.1147 21.8296 11.3615 21.7284 11.5493 21.5493C11.7317 21.3621 11.834 21.1092 11.834 20.8457C11.834 20.5822 11.7317 20.3294 11.5493 20.1422L2.51607 10.9714L11.5493 1.80056C11.7042 1.6087 11.7833 1.36514 11.7713 1.11724C11.7594 0.869342 11.6571 0.634835 11.4845 0.459333C11.3118 0.283831 11.0812 0.179884 10.8373 0.167708C10.5935 0.155533 10.3539 0.236001 10.1651 0.393461L0.452033 10.2678C0.269638 10.455 0.167317 10.7079 0.167317 10.9714C0.167317 11.2349 0.269638 11.4877 0.452033 11.6749L10.1651 21.5493C10.3529 21.7284 10.5998 21.8296 10.8572 21.8332Z" fill="#ED1B26"/>
</svg>
