<svg width="12" height="22" viewBox="0 0 12 22" fill="none" xmlns="http://www.w3.org/2000/svg">
<path d="M1.14279 21.8332C0.885348 21.8296 0.638509 21.7284 0.450732 21.5493C0.268338 21.3621 0.166016 21.1092 0.166016 20.8457C0.166016 20.5822 0.268338 20.3294 0.450732 20.1422L9.48393 10.9714L0.450732 1.80056C0.295844 1.6087 0.21669 1.36514 0.228666 1.11724C0.240642 0.869342 0.342893 0.634835 0.515529 0.459333C0.688165 0.283831 0.918842 0.179884 1.16269 0.167708C1.40654 0.155533 1.64613 0.236001 1.83485 0.393461L11.548 10.2678C11.7304 10.455 11.8327 10.7079 11.8327 10.9714C11.8327 11.2349 11.7304 11.4877 11.548 11.6749L1.83485 21.5493C1.64707 21.7284 1.40024 21.8296 1.14279 21.8332Z" fill="#ED1B26"/>
</svg>
